<?xml version="1.0" encoding="UTF-8"?><svg xmlns="http://www.w3.org/2000/svg" width="890" height="565" viewBox="0 0 890 565"><defs><style>.cls-1{letter-spacing:-.04em;}.cls-2{letter-spacing:-.05em;}.cls-3{mix-blend-mode:screen;opacity:.2;}.cls-3,.cls-4{fill:#fff;}.cls-5{letter-spacing:-.02em;}.cls-6{letter-spacing:0em;}.cls-7{letter-spacing:-.02em;}.cls-8{letter-spacing:-.02em;}.cls-9{letter-spacing:0em;}.cls-10{letter-spacing:-.06em;}.cls-11{letter-spacing:0em;}.cls-12{stroke-dasharray:0 0 4.79 4.79;}.cls-12,.cls-13,.cls-14,.cls-15{fill:none;stroke-miterlimit:10;}.cls-12,.cls-14,.cls-15{stroke:#fff;}.cls-16{font-size:26px;}.cls-16,.cls-17{font-family:Moderat-Regular, Moderat;}.cls-18{letter-spacing:-.02em;}.cls-19{letter-spacing:-.02em;}.cls-20{letter-spacing:-.02em;}.cls-21{letter-spacing:-.03em;}.cls-22{letter-spacing:-.02em;}.cls-23{letter-spacing:-.02em;}.cls-24{font-family:MyriadPro-Regular, 'Myriad Pro';font-size:75px;}.cls-13{stroke:#000;}.cls-25{letter-spacing:-.05em;}.cls-26{letter-spacing:-.02em;}.cls-15{stroke-dasharray:0 0 5 5;}.cls-27{letter-spacing:-.05em;}.cls-17{font-size:18px;}.cls-28{letter-spacing:-.04em;}.cls-29{letter-spacing:-.02em;}.cls-30{isolation:isolate;}.cls-31{letter-spacing:-.03em;}.cls-32{letter-spacing:0em;}.cls-33{letter-spacing:-.06em;}.cls-34{letter-spacing:-.06em;}.cls-35{letter-spacing:-.02em;}</style></defs><g class="cls-30"><g id="Layer_1"><rect class="cls-3" x="409.08" y="166.53" width="86" height="30" transform="translate(633.61 -270.55) rotate(90)"/><polygon class="cls-3" points="437.08 224.53 266.08 224.53 266.08 414.53 364.08 414.53 364.08 419.53 437.08 419.53 437.08 414.53 437.08 414.53 437.08 224.53"/><text class="cls-17" transform="translate(457.84 365.7) rotate(-90)"><tspan class="cls-10" x="0" y="0">S</tspan><tspan class="cls-2" x="9.94" y="0">w</tspan><tspan class="cls-22" x="23.36" y="0">a</tspan><tspan class="cls-6" x="32.78" y="0">n </tspan><tspan class="cls-21" x="48.01" y="0">L</tspan><tspan class="cls-23" x="58.16" y="0">a</tspan><tspan class="cls-8" x="67.57" y="0">n</tspan><tspan class="cls-32" x="77.58" y="0">e</tspan></text><text class="cls-17" transform="translate(415.63 129.24)"><tspan class="cls-7" x="0" y="0">M</tspan><tspan class="cls-23" x="14.76" y="0">a</tspan><tspan class="cls-31" x="24.17" y="0">r</tspan><tspan class="cls-35" x="30.49" y="0">i</tspan><tspan class="cls-18" x="35.03" y="0">o</tspan><tspan x="45.38" y="0">n</tspan><tspan class="cls-19" x="55.75" y="0"> </tspan><tspan class="cls-33" x="60.26" y="0">S</tspan><tspan class="cls-7" x="70.25" y="0">t</tspan><tspan x="77.72" y="0"> </tspan></text><text class="cls-16" transform="translate(343.86 323.92)"><tspan x="0" y="0">P</tspan></text><text class="cls-17" transform="translate(157.84 343.01) rotate(-90)"><tspan class="cls-21" x="0" y="0">G</tspan><tspan class="cls-18" x="12.67" y="0">h</tspan><tspan class="cls-26" x="22.66" y="0">u</tspan><tspan class="cls-9" x="32.69" y="0">z</tspan><tspan class="cls-7" x="42.07" y="0">n</tspan><tspan class="cls-5" x="52.07" y="0">e</tspan><tspan x="62.23" y="0">e</tspan><tspan class="cls-19" x="72.76" y="0"> </tspan><tspan class="cls-34" x="77.27" y="0">S</tspan><tspan class="cls-8" x="87.26" y="0">t</tspan></text><text class="cls-17" transform="translate(766.84 317.37) rotate(-90)"><tspan class="cls-1" x="0" y="0">V</tspan><tspan class="cls-28" x="11.5" y="0">i</tspan><tspan class="cls-27" x="15.66" y="0">v</tspan><tspan class="cls-29" x="25.11" y="0">i</tspan><tspan class="cls-23" x="29.68" y="0">a</tspan><tspan x="39.1" y="0">n</tspan><tspan class="cls-19" x="49.46" y="0"> </tspan><tspan class="cls-34" x="53.98" y="0">S</tspan><tspan class="cls-8" x="63.97" y="0">t</tspan></text><text class="cls-17" transform="translate(422.08 441.24)"><tspan class="cls-29" x="0" y="0">C</tspan><tspan class="cls-11" x="12.56" y="0">u</tspan><tspan class="cls-18" x="22.82" y="0">b</tspan><tspan class="cls-25" x="33.3" y="0">a</tspan><tspan class="cls-20" x="42.84" y="0"> </tspan><tspan class="cls-34" x="47.36" y="0">S</tspan><tspan class="cls-8" x="57.35" y="0">t</tspan></text><g><path d="M586.84,269.4l-3.96,16.1h-3.13l-2.69-12.12h-.28l-2.69,12.12h-3.13l-3.96-16.1h2.19l3.24,13.73h.28l2.78-12.58h2.85l2.78,12.58h.28l3.24-13.73h2.18Z"/><path d="M598.2,280.28h-8.69c.18,2.14,1.52,3.47,3.5,3.47,1.31,0,2.28-.57,2.83-1.47h2.12c-.87,2.09-2.85,3.33-4.94,3.33-2.9,0-5.47-2.37-5.47-5.96s2.58-5.77,5.45-5.77,5.45,2.05,5.22,6.39Zm-8.6-1.68h6.51c-.28-1.77-1.43-3.01-3.15-3.01s-2.99,1.17-3.36,3.01Z"/><path d="M601.77,271.15c0,2.12-1.86,3.36-1.86,3.36l-.58-.62c.64-.58,.92-1.36,1.04-1.96-.64-.05-1.15-.6-1.15-1.26,0-.74,.53-1.26,1.24-1.26,.85,0,1.31,.71,1.31,1.75Z"/><path d="M609.96,273.88v1.98c-.23-.05-.64-.09-.94-.09-1.47,0-2.92,.83-2.92,2.94v6.78h-2.02v-11.5h1.33l.39,1.29h.32c.44-.51,1.38-1.4,3.13-1.4h.71Z"/><path d="M622.01,280.28h-8.69c.18,2.14,1.52,3.47,3.5,3.47,1.31,0,2.28-.57,2.83-1.47h2.12c-.87,2.09-2.85,3.33-4.94,3.33-2.9,0-5.47-2.37-5.47-5.96s2.58-5.77,5.45-5.77,5.45,2.05,5.22,6.39Zm-8.6-1.68h6.51c-.28-1.77-1.43-3.01-3.15-3.01s-2.99,1.17-3.36,3.01Z"/><path d="M577.59,305.26v6.23h-2.02v-5.54c0-2.05-.34-4.32-2.62-4.32-1.72,0-3.1,1.29-3.1,3.31v6.55h-2.02v-16.33h2.02v6.05h.23c.51-.58,1.52-1.33,3.2-1.33,2.85,0,4.32,2.18,4.32,5.38Z"/><path d="M590.91,306.28h-8.69c.18,2.14,1.52,3.47,3.5,3.47,1.31,0,2.28-.57,2.83-1.47h2.12c-.87,2.09-2.85,3.33-4.94,3.33-2.9,0-5.47-2.37-5.47-5.96s2.58-5.77,5.45-5.77,5.45,2.05,5.22,6.39Zm-8.6-1.68h6.51c-.28-1.77-1.43-3.01-3.15-3.01s-2.99,1.17-3.36,3.01Z"/><path d="M599.47,299.88v1.98c-.23-.05-.64-.09-.94-.09-1.47,0-2.92,.83-2.92,2.94v6.78h-2.02v-11.5h1.33l.39,1.29h.32c.44-.51,1.38-1.4,3.13-1.4h.71Z"/><path d="M611.52,306.28h-8.69c.18,2.14,1.52,3.47,3.5,3.47,1.31,0,2.28-.57,2.83-1.47h2.12c-.87,2.09-2.85,3.33-4.94,3.33-2.9,0-5.47-2.37-5.47-5.96s2.58-5.77,5.45-5.77,5.45,2.05,5.22,6.39Zm-8.6-1.68h6.51c-.28-1.77-1.43-3.01-3.15-3.01s-2.99,1.17-3.36,3.01Z"/><path d="M575.58,335.48c0,2.56-1.98,4.12-4.2,4.12s-4.2-1.52-4.2-4.18c0-.88,.22-1.54,.48-2.1,.62-1.34,2.84-5.1,3.76-6.64h2.1l-3.14,4.94s.4-.3,1.24-.3c1.94,0,3.96,1.6,3.96,4.16Zm-1.76,0c0-1.5-1.04-2.5-2.44-2.5s-2.44,1-2.44,2.5,1.04,2.48,2.44,2.48,2.44-.98,2.44-2.48Z"/><path d="M588.02,339.6c-3.1,0-5.22-2.1-5.22-4.32h1.8c.12,1.58,1.74,2.6,3.44,2.6,1.22,0,2.76-.54,2.76-2,0-1.28-1.2-1.84-3.08-2.6-2-.8-4.54-1.78-4.54-4.22,0-2.2,2.08-3.68,4.52-3.68,2.86,0,4.56,2.04,4.56,3.82h-1.8c-.12-1.08-1.08-2.1-2.82-2.1-1.56,0-2.6,.82-2.6,1.84,0,1.36,1.88,2.04,3.04,2.52,2.08,.86,4.58,1.84,4.58,4.4,0,2.4-2.18,3.74-4.64,3.74Z"/><path d="M607.28,329.49l-2.38,10h-2.64l-1.58-6.8h-.24l-1.58,6.8h-2.64l-2.38-10h1.74l1.86,8.42h.24l1.78-7.62h2.2l1.8,7.62h.22l1.86-8.42h1.74Z"/><path d="M617.54,338.18v1.32h-.7c-.92,0-1.5-.36-1.78-1.2-.62,.82-1.64,1.3-2.92,1.3-2,0-3.38-1.18-3.38-2.92,0-2.94,3.82-3.2,6.12-3.48-.06-1.24-.54-2.22-2.12-2.22-1.76,0-2.02,1.24-2.02,1.24h-1.72c.18-1.38,1.48-2.82,3.8-2.82,2.1,0,3.64,1.18,3.64,4.08v3.46c0,.96,.32,1.24,1.08,1.24Zm-2.68-2.42v-1.04c-2.36,.24-4.44,.56-4.44,2.02,0,2.14,4.36,1.72,4.44-.98Z"/><path d="M628.12,334.07v5.42h-1.76v-4.82c0-1.78-.3-3.76-2.28-3.76-1.5,0-2.7,1.12-2.7,2.88v5.7h-1.76v-10h1.16l.36,1.14h.24c.38-.44,1.28-1.24,2.94-1.24,2.54,0,3.8,1.9,3.8,4.68Z"/><path d="M645.56,337.73v1.76h-9.02v-14h1.84v12.24h7.18Z"/><path d="M656.2,338.18v1.32h-.7c-.92,0-1.5-.36-1.78-1.2-.62,.82-1.64,1.3-2.92,1.3-2,0-3.38-1.18-3.38-2.92,0-2.94,3.82-3.2,6.12-3.48-.06-1.24-.54-2.22-2.12-2.22-1.76,0-2.02,1.24-2.02,1.24h-1.72c.18-1.38,1.48-2.82,3.8-2.82,2.1,0,3.64,1.18,3.64,4.08v3.46c0,.96,.32,1.24,1.08,1.24Zm-2.68-2.42v-1.04c-2.36,.24-4.44,.56-4.44,2.02,0,2.14,4.36,1.72,4.44-.98Z"/><path d="M666.78,334.07v5.42h-1.76v-4.82c0-1.78-.3-3.76-2.28-3.76-1.5,0-2.7,1.12-2.7,2.88v5.7h-1.76v-10h1.16l.36,1.14h.24c.38-.44,1.28-1.24,2.94-1.24,2.54,0,3.8,1.9,3.8,4.68Z"/><path d="M678.28,334.95h-7.56c.16,1.86,1.32,3.02,3.04,3.02,1.14,0,1.98-.5,2.46-1.28h1.84c-.76,1.82-2.48,2.9-4.3,2.9-2.52,0-4.76-2.06-4.76-5.18s2.24-5.02,4.74-5.02,4.74,1.78,4.54,5.56Zm-7.48-1.46h5.66c-.24-1.54-1.24-2.62-2.74-2.62s-2.6,1.02-2.92,2.62Z"/><path d="M570.34,370.88c-2.08-2.26-3.36-5.34-3.36-9.58s1.28-7.34,3.36-9.6l1.1,1.12c-1.82,1.98-2.78,4.92-2.78,8.48s.98,6.5,2.78,8.48l-1.1,1.1Z"/><path d="M584.42,361.49c0,4.3-2.54,6.1-5.62,6.1s-5.66-1.8-5.66-6.1v-8h1.88v7.8c0,3.28,1.66,4.54,3.78,4.54s3.74-1.26,3.74-4.54v-7.8h1.88v8Z"/><path d="M596.4,362.49c0,2.96-2.08,5.1-4.62,5.1-1.4,0-2.38-.66-3.02-1.6v5.5h-1.7v-14h1.16l.38,1.26h.32c.64-.82,1.58-1.36,2.86-1.36,2.54,0,4.62,2.14,4.62,5.1Zm-1.76,0c0-2.16-1.5-3.46-3-3.46-1.32,0-2.88,1-2.88,3.46s1.56,3.46,2.88,3.46c1.5,0,3-1.3,3-3.46Z"/><path d="M602.16,367.6c-2.3,0-3.8-1.5-3.8-3.32h1.62c0,1.24,1.06,1.88,2.16,1.88,.94,0,1.82-.46,1.82-1.44s-.98-1.34-2.08-1.64c-1.36-.36-3.22-.9-3.22-2.9,0-1.78,1.46-2.78,3.3-2.78,2.24,0,3.46,1.46,3.46,2.84h-1.62c0-.74-.78-1.42-1.84-1.42-.92,0-1.64,.52-1.64,1.34,0,.92,.94,1.24,1.92,1.5,1.52,.4,3.38,.92,3.38,2.98,0,1.86-1.5,2.96-3.46,2.96Z"/><path d="M613.3,366.96c-.3,.26-.84,.64-1.76,.64-1.74,0-2.8-1.3-2.8-3.12v-5.5h-1.74v-1.3h.62c.78,0,1.34-.56,1.34-1.38v-1.8h1.48v3h2.42v1.46h-2.4v5.36c0,1.28,.6,1.7,1.28,1.7,.4,0,.62-.14,.8-.28l.76,1.22Z"/><path d="M623.42,366.18v1.32h-.7c-.92,0-1.5-.36-1.78-1.2-.62,.82-1.64,1.3-2.92,1.3-2,0-3.38-1.18-3.38-2.92,0-2.94,3.82-3.2,6.12-3.48-.06-1.24-.54-2.22-2.12-2.22-1.76,0-2.02,1.24-2.02,1.24h-1.72c.18-1.38,1.48-2.82,3.8-2.82,2.1,0,3.64,1.18,3.64,4.08v3.46c0,.96,.32,1.24,1.08,1.24Zm-2.68-2.42v-1.04c-2.36,.24-4.44,.56-4.44,2.02,0,2.14,4.36,1.72,4.44-.98Z"/><path d="M624.9,354.47c0-.72,.58-1.28,1.3-1.28s1.28,.56,1.28,1.28-.58,1.28-1.28,1.28-1.3-.58-1.3-1.28Zm2.16,13.02h-1.76v-10h1.76v10Z"/><path d="M635.28,357.39v1.72c-.2-.04-.56-.08-.82-.08-1.28,0-2.54,.72-2.54,2.56v5.9h-1.76v-10h1.16l.34,1.12h.28c.38-.44,1.2-1.22,2.72-1.22h.62Z"/><path d="M640.68,367.6c-2.3,0-3.8-1.5-3.8-3.32h1.62c0,1.24,1.06,1.88,2.16,1.88,.94,0,1.82-.46,1.82-1.44s-.98-1.34-2.08-1.64c-1.36-.36-3.22-.9-3.22-2.9,0-1.78,1.46-2.78,3.3-2.78,2.24,0,3.46,1.46,3.46,2.84h-1.62c0-.74-.78-1.42-1.84-1.42-.92,0-1.64,.52-1.64,1.34,0,.92,.94,1.24,1.92,1.5,1.52,.4,3.38,.92,3.38,2.98,0,1.86-1.5,2.96-3.46,2.96Z"/><path d="M648.12,361.29c0-3.56-.96-6.5-2.78-8.48l1.1-1.12c2.08,2.26,3.36,5.36,3.36,9.6s-1.28,7.32-3.36,9.58l-1.1-1.1c1.8-1.98,2.78-4.92,2.78-8.48Z"/></g><g><line class="cls-14" x1="452.08" y1="268.06" x2="452.08" y2="265.56"/><path class="cls-12" d="M452.16,260.77c1.03-12.64,11.62-22.58,24.53-22.58h18.52"/><line class="cls-14" x1="497.61" y1="238.19" x2="500.11" y2="238.19"/><polygon class="cls-4" points="497.3 241.9 498.87 238.19 497.3 234.49 506.08 238.19 497.3 241.9"/></g><g><g><polyline class="cls-13" points="745.08 18.66 745.08 108.53 167.08 108.53 167.08 18.34"/><rect x="741.83" y="18.16" width="6.5" height="1"/><rect x="163.83" y="17.84" width="6.5" height="1"/></g><g><polyline class="cls-13" points="865.91 108.53 775.08 108.53 775.08 18.34"/><rect x="865.41" y="105.28" width="1" height="6.5"/><rect x="771.83" y="17.84" width="6.5" height="1"/></g><g><polyline class="cls-13" points="870.25 418.53 775.08 418.53 775.08 138.53 865.91 138.53"/><rect x="869.75" y="415.28" width="1" height="6.5"/><rect x="865.41" y="135.28" width="1" height="6.5"/></g><g><polyline class="cls-13" points="775.08 545.86 775.08 450.53 870.25 450.53"/><rect x="771.83" y="545.36" width="6.5" height="1"/><rect x="869.75" y="447.28" width="1" height="6.5"/></g><g><polyline class="cls-13" points="167.08 545.86 167.08 450.53 745.08 450.53 745.08 545.86"/><rect x="163.83" y="545.36" width="6.5" height="1"/><rect x="741.83" y="545.36" width="6.5" height="1"/></g><g><polyline class="cls-13" points="34.58 450.53 137.08 450.53 137.08 545.86"/><rect x="34.08" y="447.28" width="1" height="6.5"/><rect x="133.83" y="545.36" width="6.5" height="1"/></g><g><polyline class="cls-13" points="137.08 17.82 137.08 108.53 137.08 138.53 137.08 418.53 34.58 418.53"/><rect x="133.83" y="17.32" width="6.5" height="1"/><rect x="34.08" y="415.28" width="1" height="6.5"/></g><g><polyline class="cls-13" points="167.08 418.03 167.08 138.53 607.08 138.53 607.08 224.53 467.08 224.53 437.08 224.53 437.08 253.53 437.08 418.53 167.58 418.53"/><rect x="163.83" y="417.53" width="6.5" height="1"/><rect x="167.08" y="415.28" width="1" height="6.5"/></g><g><polyline class="cls-13" points="553.58 253.53 607.08 253.53 637.08 253.53 637.08 253.53 637.08 138.53 745.08 138.53 745.08 418.53 467.08 418.53 467.08 253.53 546.58 253.53"/><rect x="553.08" y="250.28" width="1" height="6.5"/><rect x="546.08" y="250.28" width="1" height="6.5"/></g></g><g><path class="cls-15" d="M512.08,239.03h30.68c4.41,0,7.98,3.57,7.98,7.98v4.07c0,4.41-3.57,7.98-7.98,7.98h-28.7c-4.41,0-7.98,3.57-7.98,7.98h0c0,4.41,3.57,7.98,7.98,7.98h33.96"/><polygon class="cls-4" points="555.08 275.03 545.13 279.09 547.49 275.03 545.13 270.96 555.08 275.03"/></g><text class="cls-24" transform="translate(90.83 232.03)"><tspan x="0" y="0"> </tspan></text><text/><text/></g></g></svg>